<?xml version="1.0" standalone="no"?>
<!DOCTYPE svg PUBLIC "-//W3C//DTD SVG 20010904//EN"
 "http://www.w3.org/TR/2001/REC-SVG-20010904/DTD/svg10.dtd">
<svg version="1.0" xmlns="http://www.w3.org/2000/svg"
 width="300.000000pt" height="172.000000pt" viewBox="0 0 300.000000 172.000000"
 preserveAspectRatio="xMidYMid meet">
<metadata>
Created by potrace 1.10, written by Peter Selinger 2001-2011
</metadata>
<g transform="translate(0.000000,172.000000) scale(0.100000,-0.100000)"
fill="#000000" stroke="none">
<path d="M820 1717 c0 -7 154 -114 185 -130 17 -8 41 -18 55 -21 14 -4 -5 8
-42 27 -36 19 -94 55 -127 81 -57 43 -71 51 -71 43z"/>
<path d="M1988 1703 c6 -2 18 -2 25 0 6 3 1 5 -13 5 -14 0 -19 -2 -12 -5z"/>
<path d="M1985 1660 c-11 -4 -58 -10 -104 -13 -46 -4 -86 -9 -90 -13 -3 -3 30
-2 74 2 44 5 123 8 175 8 81 -1 87 0 39 6 -31 4 -60 9 -65 12 -5 3 -18 2 -29
-2z"/>
<path d="M2160 1630 c34 -11 60 -11 35 0 -11 5 -29 8 -40 8 -16 0 -15 -2 5 -8z"/>
<path d="M1700 1620 c-19 -4 -61 -13 -93 -20 -32 -6 -57 -14 -55 -16 3 -2 56
7 119 20 63 13 103 24 89 24 -14 0 -41 -4 -60 -8z"/>
<path d="M2275 1590 c72 -38 142 -90 248 -184 147 -131 260 -207 307 -205 8 0
-6 8 -31 18 -64 25 -127 70 -254 180 -166 145 -243 199 -305 215 -14 4 2 -7
35 -24z"/>
<path d="M1455 1564 c-27 -8 -64 -12 -82 -9 -17 3 -34 1 -38 -5 -6 -10 -127
-14 -138 -4 -3 3 -29 7 -59 9 -45 2 -49 1 -28 -8 14 -6 86 -10 160 -10 103 1
151 6 205 21 39 11 61 20 50 20 -11 0 -42 -6 -70 -14z"/>
<path d="M2863 1193 c9 -2 23 -2 30 0 6 3 -1 5 -18 5 -16 0 -22 -2 -12 -5z"/>
<path d="M2933 1183 c15 -2 37 -2 50 0 12 2 0 4 -28 4 -27 0 -38 -2 -22 -4z"/>
<path d="M7 834 c-3 -5 36 -8 90 -6 57 2 93 0 89 -6 -3 -5 28 -9 77 -10 113 0
114 0 189 -18 42 -10 65 -20 61 -27 -3 -6 -1 -7 5 -3 14 8 102 -32 109 -50 3
-8 8 -12 13 -9 20 12 200 -191 193 -217 -2 -4 1 -8 5 -8 8 0 85 -117 112 -170
7 -14 16 -27 20 -30 3 -3 25 -30 47 -60 22 -30 57 -70 76 -89 20 -19 34 -38
31 -43 -3 -5 -2 -7 3 -6 4 1 46 -17 92 -40 46 -23 91 -42 100 -42 9 0 -10 11
-43 25 -84 34 -156 85 -208 147 -25 29 -98 133 -162 231 -193 296 -278 366
-501 412 -89 18 -389 33 -398 19z"/>
<path d="M0 592 c0 -4 26 -8 58 -9 31 0 84 -4 117 -8 33 -4 68 -7 77 -7 25 1
149 -46 168 -63 9 -8 21 -15 26 -15 19 -1 116 -121 169 -210 89 -152 208 -281
257 -280 19 1 16 5 -16 22 -56 29 -122 101 -186 202 -144 228 -208 294 -324
334 -93 32 -346 57 -346 34z"/>
</g>
</svg>
